<?xml version="1.0" encoding="utf-8"?>
<!-- Generator: Adobe Illustrator 24.1.1, SVG Export Plug-In . SVG Version: 6.00 Build 0)  -->
<svg version="1.0" id="Layer_1" xmlns="http://www.w3.org/2000/svg" xmlns:xlink="http://www.w3.org/1999/xlink" x="0px" y="0px"
	 viewBox="0 0 1000 1000" style="enable-background:new 0 0 1000 1000;" xml:space="preserve">
<style type="text/css">
	.st0{fill:#CCCCCB;}
	.st1{fill:#502719;}
	.st2{fill:#FFFFFF;}
	.st3{fill:#DEE6E1;}
</style>
<path class="st0" d="M182.4,612.3c0,0,44,82.7,44.1,120.4c0,6.4,2.2,12.7,6.6,17.4c2.4,2.5,5.6,5,10,6.8c10.3,4.3,22.2,3.5,31.9-2.2
	c7.4-4.3,14.8-12.1,14.8-25.7l4.9-133.7c0.1-3.1,0.7-6.1,2-8.9c0.1-0.1,0.1-0.3,0.2-0.4c7-15.9,27.6-21,40.7-9.5
	c4.7,4.1,8.4,10.2,8.4,19.4l15.8,85.7c0,0,1.1,13.1,13.3,13.1c0,0,12.6,1.8,16.2-19.6c0,0,10.8-54.7,10.1-80.6
	c0,0,4.3-21.6,23.8-21.6c0,0,23-7.2,42.5,74.2c0,0,6.5,50.5,1.8,76c-1.5,8.1,1.2,16.5,7.7,21.6c3.1,2.5,7.1,4.2,12.1,4.2
	c0,0,19.7,0.2,20.9-20.9c0,0-2.2-65,17.5-109.7c0,0,13.9-51.8,43.2-38.9c0,0,13.6,7.3,6.4,28.5c-3.8,11.1-6.7,22.6-8.2,34.3
	c-3.7,29.4-6.7,75.7,10.3,81.3c0,0,22,15.6,43.6-73c0.8-3.5,1.5-7,1.9-10.6c1.1-8.3,6.3-26.7,32.4-26.3c0,0,21.1-1,37,41.3
	c0,0,9.6,32.2,50.9,31.7c0,0,29.5-1.3,38.4-31.5c1.9-6.4,4-12.7,6.6-18.9c6.2-14.3,17.1-38.1,28.4-54.8c0,0,43.8-71,17.5-183.9
	c-3.4-14.6-11.5-27.8-23.4-37c-11.9-9.1-29.3-15.8-53.2-9.6c-13.4,3.5-25.5,10.8-34.6,21.2c-0.3,0.3-0.6,0.7-0.9,1
	c0,0-7.7,10.4-25,8c0,0-18.4,1.5-29.1-23.6c-6-13.9-14.5-26.6-25.6-36.9c-19.2-17.8-50.9-38.9-93.2-38.9c0,0-54.7-2.9-93.1,37.4
	c0,0-14.7,17.9-22.7,30.5c-7.4,11.6-19.9,19-33.6,19.4c-0.6,0-1.2,0-1.8,0c0,0-18.1-0.7-29.3-16.8c-2.3-3.3-3.9-7-5-10.9
	c-3-10.9-17.1-46-74.6-47.2c0,0-30.9-2.1-71.7,52.7c-12.2,16.4-22.4,34.3-30.6,53c-12.2,27.8-30.4,75.8-28,108.9
	c0.1,1.2,0.2,2.5,0.2,3.7C161.1,522.2,163.6,573.2,182.4,612.3z"/>
<path class="st1" d="M182.4,594.3c0,0,44,82.7,44.1,120.4c0,6.4,2.2,12.7,6.6,17.4c4.9,5.1,13.1,9.8,27.1,9.8c0,0,29.5-3.6,29.5-31
	l4.9-133.7c0.1-3.1,0.7-6.1,2-8.9c0.1-0.1,0.1-0.3,0.2-0.4c7-15.9,27.6-21,40.7-9.5c4.7,4.1,8.4,10.2,8.4,19.4l15.8,85.7
	c0,0,1.1,13.1,13.3,13.1c0,0,12.6,1.8,16.2-19.6c0,0,10.8-54.7,10.1-80.6c0,0,4.3-21.6,23.8-21.6c0,0,23-7.2,42.5,74.2
	c0,0,6.5,50.5,1.8,76c-1.5,8.1,1.2,16.5,7.7,21.6c3.1,2.5,7.1,4.2,12.1,4.2c0,0,19.7,0.2,20.9-20.9c0,0-2.2-65,17.5-109.7
	c0,0,13.9-51.8,43.2-38.9c0,0,13.6,7.3,6.4,28.5c-3.8,11.1-6.7,22.6-8.2,34.3c-3.7,29.4-6.7,75.7,10.3,81.3c0,0,22,15.6,43.6-73
	c0.8-3.5,1.5-7,1.9-10.6c1.1-8.3,6.3-26.7,32.4-26.3c0,0,21.1-1,37,41.3c0,0,10.4,34.5,50.9,31.7c0,0,29.5-1.3,38.4-31.5
	c1.9-6.4,4-12.7,6.6-18.9c6.2-14.3,17.1-38.1,28.4-54.8c0,0,44-71.3,17.4-184.5c-3.2-13.5-10.4-25.7-21-34.6
	c-11.9-9.9-30.1-18.2-55.4-11.4c-33.7,9.1-43.2,32.7-60.5,30.3c0,0-18.4,1.5-29.1-23.6c-6-13.9-14.5-26.6-25.6-36.9
	c-19.2-17.8-50.9-38.9-93.2-38.9c0,0-4.5-0.2-11.7,0.4c-36.7,3-70.2,21.8-92.4,51.1c-4,5.3-8.4,11.3-11.7,16.4
	c-7.4,11.6-19.9,19-33.6,19.4c-0.6,0-1.2,0-1.8,0c0,0-18.1-0.7-29.3-16.8c-2.3-3.3-3.9-7-5-10.9c-3-10.9-17.1-46-74.6-47.2
	c0,0-30.9-2.1-71.7,52.7c-12.2,16.4-22.4,34.3-30.6,53C176.4,409.6,139.9,491.4,182.4,594.3z"/>
<polygon class="st2" points="339.4,390.3 339.4,428 334.1,428 334.1,390.3 316.3,390.3 316.3,489.2 334.1,489.2 334.1,442.4 
	339.4,442.4 339.4,489.2 357.1,489.2 357.1,390.3 "/>
<polygon class="st2" points="515.4,390.3 515.4,428 510.1,428 510.1,390.3 492.4,390.3 492.4,489.2 510.1,489.2 510.1,442.4 
	515.4,442.4 515.4,489.2 533.2,489.2 533.2,390.3 "/>
<polygon class="st2" points="395.9,405 395.9,390.3 381.8,390.3 365.3,390.3 364.2,390.3 364.2,489.2 369.2,489.2 381.8,489.2 
	395.9,489.2 395.9,475.2 381.8,475.2 381.8,443.1 393.9,443.1 393.9,428 381.8,428 381.8,405 "/>
<polygon class="st2" points="571.2,405 571.2,390.3 557.2,390.3 540.6,390.3 539.5,390.3 539.5,489.2 544.6,489.2 557.2,489.2 
	571.2,489.2 571.2,475.2 557.2,475.2 557.2,443.1 569.2,443.1 569.2,428 557.2,428 557.2,405 "/>
<path class="st2" d="M440.7,477.3V448c0-7.6-7.6-12.1-7.6-12.1c6.3-1.6,7.6-9.7,7.6-9.7V407c0-13.1-12.1-16.6-12.1-16.6h-27.7v98.9
	h16V443c7.7,0,6.8,2.9,6.8,2.9v33.5c0,9.5,2.6,9.9,2.6,9.9h20.2C442,486.7,440.7,477.3,440.7,477.3z M425.4,424.2
	c0,6.8-7.6,5.6-7.6,5.6v-24.7c7.6,0,7.6,4.1,7.6,4.1V424.2z"/>
<path class="st2" d="M469.1,421.4h16.4v-17.8c0,0,0-14.6-19.6-14.6c0,0-18.7,0-18.7,16.2v17.6c0,0,0.2,5,7,13.5l11.3,13.5
	c0,0,3.4,2.7,3.4,10.4v11.9c0,0,0.4,4.3-2.6,4.3c0,0-3.7,0.5-3.7-4.9v-17.8h-17.1v22.7c0,0,0.7,14.9,20.9,14.9
	c0,0,19.1,0.4,19.1-14.9v-22.7c0,0,0.7-4.5-4.5-11.7l-15.5-18.4c0,0-2.4-2.9-2.4-7.6v-7.5c0,0-0.5-5,3.2-5c0,0,2.9-0.2,2.9,5
	L469.1,421.4z"/>
<path class="st2" d="M573.4,389l11.6,62.8c0.1,0.7,0.2,1.4,0.2,2.1v37.6h18.2v-36.2c0-1.5,0.1-3,0.4-4.4l11.8-61.8H600l-3.6,38.1
	l-5.5-38.1H573.4z"/>
<path class="st2" d="M632.8,437.7c0,0,5.6-8.1,17.3-8.5c0,0,24.7-2.3,26.5-9v-14.6c0,0-3.4,5.4-12.2,7.9l-17.1,3.2
	C647.2,416.9,631.3,419,632.8,437.7z"/>
<path class="st2" d="M652.3,466.9c-1.5-2.1-3.4-3.9-5.6-5.3c-10.1-6.2-14-19.9-14-19.9s-3.9,13.8-14,19.9c-2.2,1.3-4.1,3.2-5.6,5.3
	c-2.3,3.1-4.9,7.6-4.9,11.9c0,0,0.5,10.4,8.1,10.4h16.5h16.5c7.6,0,8.1-10.4,8.1-10.4C657.2,474.5,654.6,470,652.3,466.9z"/>
<g>
	<g>
		<path class="st3" d="M322.4,503.2h-6v-2.7h15.3v2.7h-6v14.6h-3.4V503.2z"/>
		<path class="st3" d="M350.3,500.5v17.3H347v-7.4h-9.3v7.4h-3.4v-17.3h3.4v7.1h9.3v-7.1H350.3z"/>
		<path class="st3" d="M368.7,515.1v2.7h-13.5v-17.3h13.2v2.7h-9.8v4.5h8.7v2.6h-8.7v4.8H368.7z"/>
		<path class="st3" d="M395.6,500.5v17.3h-3.4v-7.4h-9.3v7.4h-3.4v-17.3h3.4v7.1h9.3v-7.1H395.6z"/>
		<path class="st3" d="M414,515.1v2.7h-13.5v-17.3h13.2v2.7h-9.8v4.5h8.7v2.6h-8.7v4.8H414z"/>
		<path class="st3" d="M429.5,517.8l-3.7-5.1c-0.2,0-0.4,0-0.7,0h-4.1v5h-3.4v-17.3h7.4c1.6,0,2.9,0.2,4.1,0.7
			c1.2,0.5,2,1.2,2.7,2.1c0.6,0.9,0.9,2,0.9,3.3c0,1.3-0.3,2.4-1,3.4c-0.7,0.9-1.6,1.6-2.8,2.1l4.2,5.7H429.5z M428.3,504.1
			c-0.8-0.6-1.9-0.9-3.3-0.9h-3.9v6.9h3.9c1.5,0,2.6-0.3,3.3-0.9c0.8-0.6,1.1-1.5,1.1-2.6C429.4,505.5,429.1,504.7,428.3,504.1z"/>
		<path class="st3" d="M438.1,517.4c-1.3-0.4-2.3-0.9-3.1-1.5l1.2-2.5c0.7,0.6,1.6,1,2.7,1.4c1.1,0.4,2.2,0.5,3.2,0.5
			c1.3,0,2.3-0.2,3-0.6c0.7-0.4,1-1,1-1.6c0-0.5-0.2-0.9-0.6-1.2s-0.8-0.6-1.4-0.8c-0.6-0.2-1.3-0.4-2.3-0.6
			c-1.4-0.3-2.5-0.6-3.3-0.9c-0.9-0.3-1.6-0.8-2.2-1.5c-0.6-0.7-0.9-1.6-0.9-2.7c0-1,0.3-1.8,0.8-2.6c0.5-0.8,1.4-1.4,2.4-1.9
			c1.1-0.5,2.4-0.7,4-0.7c1.1,0,2.2,0.1,3.2,0.4s2,0.6,2.8,1.1l-1.1,2.5c-0.8-0.4-1.6-0.8-2.5-1c-0.9-0.2-1.7-0.3-2.5-0.3
			c-1.3,0-2.3,0.2-3,0.6c-0.6,0.4-1,1-1,1.7c0,0.5,0.2,0.9,0.6,1.2c0.4,0.3,0.8,0.6,1.4,0.7c0.6,0.2,1.3,0.4,2.3,0.6
			c1.3,0.3,2.4,0.6,3.3,0.9c0.9,0.3,1.6,0.8,2.2,1.5c0.6,0.7,0.9,1.5,0.9,2.7c0,1-0.3,1.8-0.8,2.6c-0.5,0.8-1.4,1.4-2.5,1.9
			c-1.1,0.5-2.4,0.7-4,0.7C440.8,518,439.4,517.8,438.1,517.4z"/>
		<path class="st3" d="M468.8,500.5v17.3h-3.4v-7.4h-9.3v7.4h-3.4v-17.3h3.4v7.1h9.3v-7.1H468.8z"/>
		<path class="st3" d="M487.2,515.1v2.7h-13.5v-17.3h13.2v2.7H477v4.5h8.7v2.6H477v4.8H487.2z"/>
		<path class="st3" d="M498.5,511.7v6.1h-3.4v-6.1l-7.1-11.2h3.6l5.3,8.4l5.3-8.4h3.3L498.5,511.7z"/>
		<path class="st3" d="M518.3,516.9c-1.5-0.8-2.6-1.8-3.5-3.2c-0.8-1.3-1.3-2.9-1.3-4.6s0.4-3.2,1.3-4.6c0.8-1.4,2-2.4,3.5-3.2
			c1.5-0.8,3.1-1.1,4.9-1.1c1.5,0,2.8,0.2,4,0.7c1.2,0.5,2.3,1.2,3.1,2.1l-2.2,2c-1.3-1.4-2.9-2-4.8-2c-1.2,0-2.3,0.3-3.3,0.8
			c-1,0.5-1.7,1.2-2.3,2.2c-0.6,0.9-0.8,2-0.8,3.1s0.3,2.2,0.8,3.1c0.5,0.9,1.3,1.6,2.3,2.2c1,0.5,2.1,0.8,3.3,0.8
			c1.9,0,3.5-0.7,4.8-2l2.2,2c-0.8,0.9-1.9,1.7-3.1,2.1c-1.2,0.5-2.6,0.7-4.1,0.7C521.4,518,519.8,517.6,518.3,516.9z"/>
		<path class="st3" d="M536.7,516.9c-1.5-0.8-2.6-1.8-3.5-3.2c-0.8-1.4-1.3-2.9-1.3-4.6s0.4-3.2,1.3-4.6c0.8-1.4,2-2.4,3.5-3.2
			c1.5-0.8,3.1-1.1,5-1.1s3.5,0.4,5,1.1c1.5,0.8,2.6,1.8,3.5,3.2c0.8,1.3,1.3,2.9,1.3,4.6s-0.4,3.2-1.3,4.6c-0.8,1.4-2,2.4-3.5,3.2
			s-3.1,1.1-5,1.1S538.2,517.6,536.7,516.9z M544.9,514.4c1-0.5,1.7-1.2,2.3-2.2c0.5-0.9,0.8-2,0.8-3.1s-0.3-2.2-0.8-3.1
			c-0.6-0.9-1.3-1.7-2.3-2.2c-1-0.5-2-0.8-3.2-0.8s-2.3,0.3-3.2,0.8c-1,0.5-1.7,1.2-2.3,2.2c-0.6,0.9-0.8,2-0.8,3.1s0.3,2.2,0.8,3.1
			c0.5,0.9,1.3,1.7,2.3,2.2s2,0.8,3.2,0.8S544,514.9,544.9,514.4z"/>
		<path class="st3" d="M571.5,517.8l0-11.5l-5.9,9.5h-1.5l-5.9-9.3v11.3H555v-17.3h2.8l7.2,11.5l7-11.5h2.8l0,17.3H571.5z"/>
		<path class="st3" d="M591.1,501.2c1.2,0.5,2,1.2,2.7,2.1c0.6,0.9,0.9,2,0.9,3.3c0,1.3-0.3,2.3-0.9,3.3c-0.6,0.9-1.5,1.6-2.7,2.1
			c-1.2,0.5-2.5,0.7-4.1,0.7h-4.1v5h-3.4v-17.3h7.4C588.6,500.5,589.9,500.7,591.1,501.2z M590.2,509.2c0.8-0.6,1.1-1.4,1.1-2.5
			c0-1.1-0.4-2-1.1-2.5s-1.9-0.9-3.3-0.9h-3.9v6.9h3.9C588.3,510.1,589.4,509.8,590.2,509.2z"/>
		<path class="st3" d="M608.9,513.8h-9l-1.8,4h-3.5l8.1-17.3h3.3l8.1,17.3h-3.5L608.9,513.8z M607.7,511.2l-3.4-7.6l-3.4,7.6H607.7z
			"/>
		<path class="st3" d="M632.5,500.5v17.3h-2.8l-10-11.7v11.7h-3.3v-17.3h2.8l10,11.7v-11.7H632.5z"/>
		<path class="st3" d="M645.1,511.7v6.1h-3.4v-6.1l-7.1-11.2h3.6l5.3,8.4l5.3-8.4h3.3L645.1,511.7z"/>
	</g>
</g>
<path class="st1" d="M162.7,545.4c0,0-14.9-46.5-1.4-111.8c3.8-18.4,10-36.3,18.2-53.3c12.8-26.7,37.2-72.7,62.4-92.2
	c0,0,26.7-25,54.5-21.5c2.8,0.4,5.7,0.8,8.5,1.1c8.4,0.9,28.4,5.1,44.5,24c0,0,10.6,15.8,14.5,26.9c0,0,7.2,27.2,39.5,21.4
	c0.7-0.1,1.5-0.2,2.2-0.3c3.5-0.4,17.5-3.5,29.5-24.3c3.2-5.6,7-11,11.3-15.8c14.6-16.1,47.7-44.8,98-44.8c0,0,76.1-1,108.4,51.5
	c0,0,13.9,20.5,20.2,36.4c0,0,0.7,1,2.2,2.5c9.6,9.8,24.9,11.4,36.6,4c4.2-2.7,10-6.7,16-12c9.8-8.6,21.9-14.5,34.8-16.3
	c9.8-1.3,21.1-0.6,32.3,5c0,0,26.6,10.6,37.4,39.1c0,0-20.7-43.4-69.4-39c0,0-19.9,1.5-36.1,17.3c-2.7,2.6-12.7,10.3-23.1,12.8
	c-12.4,2.9-25.2-3.2-31.3-14.5c-7.1-13.1-21.8-38.9-30.5-43.9c0,0-33.7-38.9-100-38.9c0,0-56.2,2.9-91.1,43.2c0,0-7.4,7-16.4,21.4
	c0,0-12.1,22.7-37.4,22.7c0,0-27.8-2.3-34.7-26.8c0,0-14.9-46.1-62.2-47.5c0,0-37.8-4.6-70.2,34.4c-1.1,1.3-2.2,2.6-3.4,3.9
	c-6.9,7.8-32,38.7-53.1,95.8c-5.1,13.9-8.8,28.2-11,42.8C159.1,471.9,155.9,509.1,162.7,545.4z"/>
</svg>
